# xmcd
#
# Track frame offsets: 
#        150
#        12460
#        23320
#        34830
#        46275
#        62625
#        75233
#        85603
#        98380
#        111395
#        123355
#        137353
#
# Disc length: 2003 seconds
#
# Revision: 0
# Processed by: cddbd v1.5.2PL0 Copyright (c) Steve Scherf et al.
# Submitted via: ExactAudioCopy v0.99pb4
#
DISCID=7e07d10c
DTITLE=Freddy Fender - Greatest Hits
DYEAR=1900
DGENRE=Rock and Roll
TTITLE0=Wasted Days And Wasted Nights
TTITLE1=The Rains Came
TTITLE2=You'll Lose A Good Thing
TTITLE3=I'm Leaving It Up To You
TTITLE4=Wild Side Of Life
TTITLE5=Almost Persuaded
TTITLE6=Before The Next Teardrop Falls
TTITLE7=Enter my Heart
TTITLE8=Silver Wings
TTITLE9=Sweet Summer Days
TTITLE10=Baby, I Want To Love You
TTITLE11=Going Out With The Tide
EXTD=
EXTT0=
EXTT1=
EXTT2=
EXTT3=
EXTT4=
EXTT5=
EXTT6=
EXTT7=
EXTT8=
EXTT9=
EXTT10=
EXTT11=
PLAYORDER=
